<?xml version="1.0" standalone="no"?>
<!DOCTYPE svg PUBLIC "-//W3C//DTD SVG 1.1//EN" "http://www.w3.org/Graphics/SVG/1.1/DTD/svg11.dtd" >
<svg xmlns="http://www.w3.org/2000/svg">
<metadata>
Created by FontForge 20120731 at Sun May  7 20:24:36 2017
 By admin
</metadata>
<defs>
<font id="iconfont" horiz-adv-x="1024" >
  <font-face 
    font-family="iconfont"
    font-weight="500"
    font-stretch="normal"
    units-per-em="1024"
    panose-1="2 0 6 3 0 0 0 0 0 0"
    ascent="896"
    descent="-128"
    x-height="792"
    bbox="-0.043478 -212 1224 896"
    underline-thickness="0"
    underline-position="0"
    unicode-range="U+0078-F002A"
  />
<missing-glyph 
 />
    <glyph glyph-name=".notdef" 
 />
    <glyph glyph-name=".null" horiz-adv-x="0" 
 />
    <glyph glyph-name="nonmarkingreturn" horiz-adv-x="341" 
 />
    <glyph glyph-name="x" unicode="x" horiz-adv-x="1001" 
d="M281 543q-27 -1 -53 -1h-83q-18 0 -36.5 -6t-32.5 -18.5t-23 -32t-9 -45.5v-76h912v41q0 16 -0.5 30t-0.5 18q0 13 -5 29t-17 29.5t-31.5 22.5t-49.5 9h-133v-97h-438v97zM955 310v-52q0 -23 0.5 -52t0.5 -58t-10.5 -47.5t-26 -30t-33 -16t-31.5 -4.5q-14 -1 -29.5 -0.5
t-29.5 0.5h-32l-45 128h-439l-44 -128h-29h-34q-20 0 -45 1q-25 0 -41 9.5t-25.5 23t-13.5 29.5t-4 30v167h911zM163 247q-12 0 -21 -8.5t-9 -21.5t9 -21.5t21 -8.5q13 0 22 8.5t9 21.5t-9 21.5t-22 8.5zM316 123q-8 -26 -14 -48q-5 -19 -10.5 -37t-7.5 -25t-3 -15t1 -14.5
t9.5 -10.5t21.5 -4h37h67h81h80h64h36q23 0 34 12t2 38q-5 13 -9.5 30.5t-9.5 34.5q-5 19 -11 39h-368zM336 498v228q0 11 2.5 23t10 21.5t20.5 15.5t34 6h188q31 0 51.5 -14.5t20.5 -52.5v-227h-327z" />
    <glyph glyph-name="shezhi" unicode="&#xf002a;" 
d="M513.5 510q-87.5 0 -149.5 -62t-62 -149t62 -149t149.5 -62t149.5 62t62 149t-62 149t-149.5 62zM513.5 157q-58.5 0 -100 41.5t-41.5 100t41.5 100t100 41.5t100 -41.5t41.5 -100t-41.5 -100t-100 -41.5zM952 448h-42q-10 0 -13.5 9t3.5 16l29 30q21 20 21 49t-21 49
l-113 113q-20 20 -49 20t-49 -20l-30 -30q-4 -4 -10 -4q-3 0 -6 1q-9 4 -9 13v43q0 29 -20.5 51.5t-48.5 22.5h-160q-29 0 -49.5 -22.5t-20.5 -51.5v-43q0 -9 -9 -13q-3 -1 -5 -1q-6 0 -11 4l-29 30q-21 20 -50 20t-49 -20l-113 -113q-20 -20 -20 -49t20 -49l30 -30
q7 -7 3 -16t-13 -9h-43q-29 0 -50.5 -20.5t-21.5 -48.5v-160q0 -28 21.5 -48.5t50.5 -20.5h43q9 0 13 -9t-3 -16l-30 -30q-20 -20 -20 -49t20 -49l113 -113q20 -20 49 -20t50 20l29 30q5 4 11 4q2 0 5 -1q9 -4 9 -14v-42q0 -29 20.5 -50.5t49.5 -21.5h160q28 0 48.5 21.5
t20.5 50.5v42q0 10 9 14q3 1 6 1q6 0 10 -4l30 -30q20 -20 49 -20t49 20l113 113q21 20 21 49t-21 49l-29 30q-7 7 -3.5 16t13.5 9h42q29 0 51 20.5t22 48.5v160q0 28 -22 48.5t-51 20.5zM955 219h-45q-26 0 -47 -14t-31 -37.5t-5 -48.5t23 -43l30 -30l-113 -113l-30 30
q-24 25 -59 25q-17 0 -32 -7q-24 -10 -38 -31t-14 -47v-45h-160v45q0 26 -14 47t-38 31q-16 7 -32 7q-35 0 -60 -25l-30 -30l-113 113l30 30q18 18 23 43t-4.5 48.5t-31 37.5t-46.5 14h-46v160h46q25 0 46.5 14t31 37.5t4.5 48.5t-23 43l-30 30l113 113l30 -30
q25 -25 60 -25q16 0 32 7q24 10 38 31t14 46v47h160v-47q0 -25 14 -46t38 -31q15 -7 32 -7q35 0 59 25l30 30l113 -113l-30 -30q-18 -18 -23 -43t5 -48.5t31 -37.5t47 -14h45v-160z" />
    <glyph glyph-name="QQ" unicode="&#xe607;" 
d="M971 143l-2 18l-3 17l-3 9l-2 9l-3 9l-4 10l-3 10l-4 9l-8 16l-6 14l-7 13l-5 11l-7 11l-5 9l-10 15l-12 19l-3 5l-1 2v1l2 7l3 6l2 11l2 6v6v5v5v6l-1 4l-2 10l-2 9l-3 8l-3 8l-4 7l-3 7l-3 6l-6 9l-2 3v2l-3 18l-1 11l-2 14l-3 15l-4 17l-3 9l-2 8l-3 9l-3 10l-3 9
l-4 10l-8 19l-5 9l-6 10l-5 9l-6 10l-7 10l-7 8l-8 10l-8 8l-8 8l-9 9l-5 3l-5 4l-11 7l-12 8l-12 7l-13 7l-13 6l-13 6l-14 4l-15 4l-13 4l-15 3l-13 4l-15 1l-14 2l-15 2h-15h-14h-14l-14 -1l-14 -2l-14 -2l-13 -2l-14 -3l-13 -3l-13 -4l-12 -4l-12 -4l-12 -6l-12 -5
l-10 -6l-10 -6l-10 -7l-10 -8l-8 -7l-12 -12l-10 -10l-10 -11l-9 -11l-9 -11l-7 -10l-7 -11l-4 -5l-3 -6l-7 -10l-5 -10l-5 -10l-4 -10l-4 -9l-3 -9l-3 -9l-4 -8l-4 -16l-3 -15l-1 -12l-2 -11v-8v-7v-6l-3 -3l-3 -4l-2 -4l-2 -4l-2 -9l-3 -9v-7l-1 -6v-6l-6 -8l-4 -9l-3 -8
l-2 -7l-2 -7l-2 -6v-6v-6v-5l1 -4l2 -7l1 -6l-3 -3l-9 -6l-12 -11l-7 -7l-7 -6l-5 -5l-4 -5l-9 -9l-8 -10l-7 -8l-8 -11l-7 -11l-7 -12l-7 -11l-5 -11l-5 -11l-4 -10l-4 -11l-3 -11l-3 -11l-3 -10l-2 -10l-1 -9l-2 -10l-1 -18v-17v-7l1 -7l2 -13l1 -6l2 -5l2 -6l1 -3l3 -7
l2 -2l2 -3h1h1h1h7l7 2l7 3l6 4l6 4l5 5l6 5l5 6l5 6l4 6l4 4l2 6l5 8l2 4l1 2v3l1 2h1l2 1h1v-1h1h1l3 -12l2 -10l4 -10l4 -9l4 -9l5 -8l4 -9l4 -7l5 -7l3 -6l10 -12l9 -11l8 -8l8 -7l7 -6l11 -10l4 -2l2 -2v-1l-1 -1h-1h-2l-8 -1l-7 -1l-6 -1l-7 -1l-5 -2l-6 -2l-5 -2
l-4 -3l-5 -1l-3 -3l-3 -2l-4 -3l-4 -5l-2 -3l-2 -2l-3 -6l-2 -5l-1 -5l-1 -4v-6v-3l-1 -4v-4l-1 -4v-3l1 -4l1 -4l2 -7l2 -3l2 -3l2 -3l3 -3l3 -3l2 -3l7 -5l8 -4l8 -5l9 -3l9 -4l11 -2l10 -4l11 -2l12 -2l11 -2l12 -1l24 -3h24h23h10h10h11l9 1l9 1l8 1l13 2l9 3l9 2l17 7
l8 3l7 3l12 7l10 6l8 5l6 5l9 -1l7 -1l14 -1h6h6l4 -1l4 -1l7 -3l8 -2l14 -5l15 -5l14 -4l14 -3l15 -4l15 -2l15 -2l14 -2l14 -1l15 -1h13h14h13l13 1l13 1l12 2l11 3l11 2l11 3l5 1l5 2l9 3l8 4l8 4l8 4l6 5l3 3l3 4l4 4l4 6l1 3l1 3l2 3l1 3v4l1 3l-1 5l-1 4l-2 5l-1 4
l-3 5l-3 5l-3 3l-4 4l-9 7l-10 8l-10 5l-10 6l-23 12l-6 3l-2 2l-1 1l12 11l5 6l4 5l8 12l7 11l6 11l6 10l8 20l7 16l4 12l2 4l2 3l2 2h1h1l6 -12l5 -12l4 -7l4 -5l4 -7l5 -7l4 -5l3 -2l2 -3l2 -1l3 -2l4 -2l3 -1h2h2l2 1l4 1l3 2l3 2l3 3l3 4l2 3l3 5l2 3l2 6l2 4l3 11
l2 12l2 14l1 8v6v7v9z" />
    <glyph glyph-name="icon" unicode="&#xe604;" 
d="M640 260q-12 0 -21.5 -9.5t-9.5 -21t9.5 -21t21.5 -9.5q6 0 14.5 10t8.5 20.5t-8.5 20.5t-14.5 10zM369 307v-5q1 -6 0 -18.5t1.5 -26.5t5 -30.5t10.5 -29.5t18 -24t27 -14t38 0.5t51 19.5t66 43q-44 -25 -80 -33.5t-58 -4t-38 19.5t-23.5 30.5t-12 34.5t-5 26t-0.5 12z
M524 399q0 20 -17.5 34.5t-44.5 4.5q-17 -4 -30.5 -23t-18.5 -37l-5 -17q-16 -85 38 -81q20 1 39 11q0 -2 0.5 -4.5t2.5 -11t5 -15t8.5 -13.5t12.5 -10t17.5 -1.5t23.5 9.5q11 9 19.5 23t13.5 28.5t8 27.5t4 21l1 8q2 28 -5 43t-19 16.5t-24 -1t-20 -7.5zM501 368
q-6 -11 -15.5 -21t-15.5 -10q-20 10 -8 47q5 10 8 15t9.5 10t13.5 5q17 -17 8 -46zM578 337q-12 -23 -23 -23q-18 18 -8 39q12 23 23 23t12.5 -13.5t-4.5 -25.5zM339 353q-8 0 -16 -6.5t-8 -16.5q0 -11 8.5 -21t15.5 -10q10 0 16.5 9t6.5 22q0 23 -23 23zM510.5 745
q-90.5 0 -173 -35t-142 -94.5t-94.5 -142t-35 -172.5t35 -172t94.5 -141.5t142 -94.5t173 -35t173 35t142 94.5t95 141.5t35.5 172t-35.5 172.5t-95 142t-142 94.5t-173 35zM802 253q-7 -7 -18.5 -18t-46 -31.5t-67.5 -27.5v-147l1 -21q-8 -56 -117 -2l-87 77l-83 -61
q-4 -3 -10 -6.5t-21.5 -8t-29 -1.5t-27 20t-20.5 50q0 184 24 192q-15 19 -23.5 32t-23.5 41.5t-23 62.5t-8 72l3 21q19 55 121 -6q35 -17 47.5 -17t29.5 17q16 24 58.5 59.5t73.5 41.5q3 1 7.5 1.5t17.5 -0.5t23.5 -7.5t21 -24.5t15.5 -46l15 -101q4 -2 0 -14t23.5 -25.5
t82.5 -13.5v0q53 -1 71 -25q20 -29 -30 -83z" />
    <glyph glyph-name="yl" unicode="&#xe60b;" 
d="M496 686l-244 -220h-189v-170v0v0v-168h190l243 -216v216v0v338v0v220zM462 165v0v-37v-139l-189 168l-9 8h-11h-157v131v0v133h156h11l9 8l190 171v-142v-37v-264zM573 490q56 -83 56 -188q0 -106 -58 -191l27 -23q64 95 64 214q0 117 -62 211zM708 627l-26 -24
q97 -133 97 -306q0 -168 -93 -299l26 -23q100 141 100 322q0 186 -104 330zM811 749l-25 -25q69 -88 106 -198.5t37 -228.5q0 -115 -35.5 -223.5t-102.5 -196.5l26 -24q70 92 107.5 207t37.5 237q0 125 -39 241.5t-112 210.5z" />
    <glyph glyph-name="icon8" unicode="&#xe608;" 
d="M841 582q-105 121 -262 146v-332q8 -67 32 -127t51 -100.5t63 -77.5t61 -56t52 -37l2 2l1 1q109 125 109 290.5t-109 290.5zM507 169q-14 -49 -39 -94t-55.5 -79t-54.5 -56t-49 -40q95 -50 202 -50q111 0 209 54q-40 29 -76.5 67t-60.5 71.5t-42 62.5t-26 47zM445 391
v337q-159 -24 -266 -147.5t-107 -288.5q0 -169 113 -295q55 38 98.5 81t70 79t46 74t27.5 63.5t12.5 51t5 33t0.5 12.5v0z" />
    <glyph glyph-name="iconfonticonziti02" unicode="&#xe633;" 
d="M875 666h-725q-34 0 -58.5 -24.5t-24.5 -58.5v-697h892v697q0 34 -24.5 58.5t-59.5 24.5zM783 71l112 111v-223zM878 -52h-217l108 109zM769 85l-114 114h229zM644 182l111 -111l-111 -112v223zM471 611q17 0 29.5 -12.5t12.5 -29.5t-12.5 -29.5t-29.5 -12.5t-29.5 12.5
t-12.5 29.5t12.5 29.5t29.5 12.5zM331.5 611q17.5 0 29.5 -12.5t12 -29.5t-12 -29.5t-29.5 -12.5t-29.5 12.5t-12 29.5t12 29.5t29.5 12.5zM192 611q17 0 29.5 -12.5t12.5 -29.5t-12.5 -29.5t-29.5 -12.5t-29.5 12.5t-12.5 29.5t12.5 29.5t29.5 12.5zM122 471h781v-258h-273
v-272h-508v530z" />
    <glyph glyph-name="qq" unicode="&#xe609;" 
d="M685 398h-324l214 -37l-230 -187h348l-206 45zM516 766q-95 0 -181.5 -37t-149.5 -99.5t-100 -149t-37 -182t37 -182t100 -149t149.5 -99.5t181.5 -37t181.5 37t149.5 99.5t100 149t37 182t-37 182t-100 149t-149.5 99.5t-181.5 37zM820 382l-119 -101l40 -253
q-8 -8 -16 -8l-207 127l-206 -127q-13 0 -15.5 1t-2.5 7l29 253l-126 111l-43 31h-12v1l12 -1h112h134l32 56l79 168h16l87 -168l32 -56h134h80q3 0 6 1q1 0 1.5 -0.5t0.5 -4.5z" />
    <glyph glyph-name="wu" unicode="&#xe602;" 
d="M840 -161h-656q-9 0 -15.5 6.5t-6.5 16.5v894q0 9 6.5 15.5t15.5 6.5h492q9 0 15.5 -6.5t6.5 -15.5t-6.5 -15.5t-15.5 -6.5h-470v-850h612v711q0 9 6.5 15.5t15.5 6.5t15.5 -6.5t6.5 -15.5v-733q0 -10 -6.5 -16.5t-15.5 -6.5zM840 573h-164q-9 0 -15.5 6.5t-6.5 15.5v161
q0 15 13.5 21t24.5 -5l164 -161q10 -10 4.5 -24t-20.5 -14zM698 617h87l-87 86v-86zM755 462q0 -11 -7.5 -18.5t-18.5 -7.5h-434q-11 0 -18.5 7.5t-7.5 18.5v0q0 10 7.5 18t18.5 8h434q11 0 18.5 -8t7.5 -18v0zM755 329q0 -11 -7.5 -18.5t-18.5 -7.5h-434q-11 0 -18.5 7.5
t-7.5 18.5v0q0 10 7.5 18t18.5 8h434q11 0 18.5 -8t7.5 -18v0zM755 196q0 -11 -7.5 -18.5t-18.5 -7.5h-434q-11 0 -18.5 7.5t-7.5 18.5v0q0 10 7.5 18t18.5 8h434q11 0 18.5 -8t7.5 -18v0zM755 63q0 -11 -7.5 -18.5t-18.5 -7.5h-434q-11 0 -18.5 7.5t-7.5 18.5v0
q0 11 7.5 18.5t18.5 7.5h434q11 0 18.5 -8t7.5 -18v0z" />
    <glyph glyph-name="qq1" unicode="&#xe622;" 
d="M727 441q-2 42 -21.5 79.5t-51 63t-70 40.5t-81.5 13.5t-81 -19.5q-77 -37 -111 -111.5t-8 -148.5v0q24 -97 128 -143q15 -7 24 9q25 45 74 41q14 -1 25 16q49 81 141 67q88 -13 114 -104q2 -7 3 -10t5 -7t11 -6q90 -28 92 -106q3 -77 -87 -114q-4 -4 -17 -4h-343
q-13 0 -17 4h-2h-3v0q-153 30 -247 130q-59 64 -88 144t-24.5 159t34.5 153t91 133t142 90q1 1 33 13q110 41 241 0q141 -50 216 -154q130 -183 56 -395q0 -1 -2.5 -11.5t-5.5 -14t-8 -2.5q-36 4 -44 24q-33 79 -105 108q-10 4 -13 22q-6 27 0 41z" />
    <glyph glyph-name="icon1" unicode="&#xe60e;" 
d="M855 18q-48 -49 -103.5 -95t-125 -86.5t-114.5 -40.5t-113 39t-123 85t-106 97q-24 25 -41 109.5t-23 184.5t-10 203.5t-2.5 164.5t0.5 67v0q25 7 67 17t155.5 26.5t208.5 16.5q91 0 193 -15t158 -30l56 -15v-70t-3.5 -160t-10.5 -209t-23.5 -180t-39.5 -109zM872 687
q-5 2 -16 6t-46.5 14.5t-73.5 18t-95.5 14t-115.5 6.5q-95 0 -188 -14.5t-138 -29.5l-46 -15q2 -6 0 -55.5t2 -134.5t10 -168t23 -155.5t42 -96.5q4 -5 14 -15q34 -34 52 -51.5t51 -45.5t56.5 -42.5t53 -26t56 -11.5t57 12t54.5 27t57.5 44t51.5 46.5t51 50.5l12 12
q76 76 76 610zM557 58h-84v125h-186v62h186v55l-13 28h-173v62h143l-123 206h87l123 -206l121 206h87l-125 -206h143v-62h-172l-14 -28v-55h186v-62h-186v-125z" />
    <glyph glyph-name="shang" unicode="&#xe650;" 
d="M985 105l-439 444q-12 11 -28.5 11t-28.5 -11v-0.5v-0.5l-1 -0.5l-1 -0.5l-443 -439q-12 -12 -12 -28.5t11.5 -28.5t28 -12t28.5 12l417 413l412 -415q11 -12 27.5 -12t28.5 11.5t12 28.5t-12 28z" />
    <glyph glyph-name="tubiao115" unicode="&#xe636;" horiz-adv-x="1025" 
d="M512 754l381 -376q-23 -12 -37 -35t-14 -50v-292h-165v227q0 41 -29 69.5t-70 28.5h-132q-41 0 -70 -28.5t-29 -69.5v-227h-165v292q0 27 -14 50t-37 35zM512 832q-14 0 -23 -9l-482 -474q-9 -10 -6.5 -16.5t16.5 -6.5h66q14 0 23.5 -9.5t9.5 -23.5v-325q0 -13 9.5 -22.5
t23.5 -9.5h231q14 0 23.5 9.5t9.5 22.5v260q0 14 9.5 23.5t23.5 9.5h132q14 0 23.5 -9.5t9.5 -23.5v-260q0 -13 9.5 -22.5t23.5 -9.5h231q14 0 23.5 9.5t9.5 22.5v325q0 14 9.5 23.5t23.5 9.5h66q14 0 16.5 6.5t-6.5 16.5l-482 474q-9 9 -23 9v0z" />
    <glyph glyph-name="qq2" unicode="&#xe61b;" 
d="M919 302q-23 54 -57 96q16 21 16 54q0 23 -7.5 41t-20.5 25q4 26 4 51q0 89 -44 164.5t-120 119t-165.5 43.5t-165.5 -43.5t-120 -119t-44 -164.5q0 -26 4 -51q-27 -18 -27 -66q0 -25 10 -45q-34 -36 -59 -85q-22 -44 -29.5 -89.5t-1.5 -75.5t20 -38q12 -6 38 11.5
t53 51.5q10 -81 71 -143q-49 -15 -77.5 -41t-24.5 -54q6 -36 59.5 -56.5t123.5 -12.5q51 5 90.5 23.5t56.5 44.5q9 -1 18 -1q14 0 28 1q17 -25 55.5 -43.5t86.5 -25.5q68 -8 119.5 11.5t56.5 55.5q4 28 -24.5 55t-76.5 42q59 60 70 137q26 -35 49.5 -55t36.5 -17
q11 3 17.5 31.5t2.5 76t-22 91.5z" />
    <glyph glyph-name="ren" unicode="&#xe65c;" 
d="M689 454h295q7 0 11.5 -4.5t4.5 -11.5t-4.5 -11.5t-11.5 -4.5h-295q-6 0 -11 4.5t-5 11.5t5 11.5t11 4.5zM755 291h229q7 0 11.5 -5t4.5 -11.5t-4.5 -11.5t-11.5 -5h-229q-7 0 -11.5 5t-4.5 11.5t4.5 11.5t11.5 5zM853 127h131q7 0 11.5 -5t4.5 -11.5t-4.5 -11.5
t-11.5 -5h-131q-7 0 -11.5 5t-4.5 11.5t4.5 11.5t11.5 5zM397.5 716q-81.5 0 -139 -57.5t-57.5 -139t57.5 -139t139 -57.5t139 57.5t57.5 139t-57.5 139t-139 57.5zM398 356q-68 0 -116 48t-48 116t48 116t116 48t116 -48t48 -116t-48 -116t-116 -48zM758 -4q0 98 -48 181
t-131 131t-181 48t-181 -48t-131 -131t-48 -181v-12v0v-4q0 -7 4.5 -12t11.5 -5t12 5t5 12q0 1 -1 4h1q-1 6 -1 12q0 89 44 164.5t119.5 119t164.5 43.5t164.5 -43.5t119 -119t43.5 -164.5v-11q-1 -3 -1 -5q0 -7 5 -12t11.5 -5t11.5 5t5 12v4h1v12z" />
    <glyph glyph-name="yuanquan" unicode="&#xe672;" 
d="M512 -212q-104 0 -199 40.5t-163.5 109t-109 163.5t-40.5 199t40.5 199t109 163.5t163.5 109t199 40.5t199 -40.5t163.5 -109t109 -163.5t40.5 -199t-40.5 -199t-109 -163.5t-163.5 -109t-199 -40.5zM512 684q-104 0 -192.5 -51.5t-140 -140t-51.5 -192.5t51.5 -192.5
t140 -140t192.5 -51.5t192.5 51.5t140 140t51.5 192.5t-51.5 192.5t-140 140t-192.5 51.5z" />
    <glyph glyph-name="ye" unicode="&#xe62f;" 
d="M523 516v215h36v-178h176v-37h-212v0zM138 -123v876h416l203 -205v-671h-619v0zM720 532l-181 184h-364v-802h545v618v0zM652 654v215h37v-178h175v-37h-212v0zM735 15v37h114v618l-181 184h-364v-119h-37v156h416l203 -206v-670h-151v0zM265 364v23h335v-23h-335v0z
M265 207v23h335v-23h-335v0zM265 50v23h335v-23h-335v0z" />
    <glyph glyph-name="iconfontpingbandiannao" unicode="&#xe644;" 
d="M960 646v64v0v0h-160v0h-672h-64v-64v-499v-64h64h832v64v0v499v0zM826 396.5q0 20.5 14 36t37 15.5q24 0 37.5 -13.5t13.5 -37.5q0 -21 -14 -36t-37 -15t-37 15t-14 35.5zM800 147h-672v499h666v-499h6z" />
    <glyph glyph-name="tubiaoyueliang" unicode="&#xe799;" 
d="M486 81q-75 0 -142 36q-64 35 -106 95q-6 9 0 18.5t18 7.5q23 -5 46 -5q100 0 170 70t70 169q0 53 -22 100.5t-62 81.5q-9 7 -5.5 18t15.5 11q10 1 18 1q62 0 118 -24q54 -23 95.5 -64.5t64.5 -95.5q24 -56 24 -117.5t-24 -117.5q-23 -54 -64.5 -95.5t-95.5 -64.5
q-56 -24 -118 -24v0zM291 200q30 -33 69 -53q59 -32 126 -32q111 0 189.5 78.5t78.5 189.5t-78 189q-69 69 -167 78q66 -77 66 -178q0 -113 -80 -192.5t-193 -79.5h-11v0zM291 200z" />
    <glyph glyph-name="wenjianjiafolder170" unicode="&#xe6f6;" horiz-adv-x="1073" 
d="M341 896h-243q-21 0 -35 -14t-14 -35v-195h975v98q0 20 -14.5 34t-34.5 14h-585v49q0 21 -14 35t-35 14zM0 554v-633q0 -20 14 -34.5t35 -14.5h975q20 0 34.5 14.5t14.5 34.5v633q0 21 -14.5 35t-34.5 14h-975q-20 0 -34.5 -14t-14.5 -35z" />
    <glyph glyph-name="iconwangyesheji" unicode="&#xe62e;" 
d="M960 800h-902q-20 0 -36 -16t-16 -35v-576q0 -19 16 -35t36 -16h902q19 0 35 16t16 35v576q0 20 -14 35.5t-37 15.5zM954 269h-890v467h890v-467zM307 627zM250 627q0 24 16.5 41t40.5 17t41 -17t17 -41t-17 -40.5t-41 -16.5t-40.5 16.5t-16.5 40.5zM538 493h243v-167
h-243v167zM538 659h243v-19h-243v19zM538 627h243v-19h-243v19zM237 493h243v-19h-243v19zM237 461h243v-19h-243v19zM237 422h243v-19h-243v19zM237 384h243v-19h-243v19zM237 346h243v-20h-243v20zM614 -32h-211l19 179h180zM294 -45q0 21 13.5 39.5t31.5 18.5h339
q19 0 32 -18.5t13 -39.5h-429z" />
    <glyph glyph-name="iconset0247" unicode="&#xe692;" 
d="M939 469v86q0 35 -25 60t-61 25h-725q-35 0 -60 -25t-25 -60v-342q0 -35 25 -60t60 -25h725q36 0 61 25t25 60v86q17 0 29.5 12.5t12.5 29.5v86q0 17 -12.5 29.5t-29.5 12.5zM896 427v-86v-128q0 -17 -12.5 -29.5t-30.5 -12.5h-725q-18 0 -30.5 12.5t-12.5 29.5v342
q0 17 12.5 29.5t30.5 12.5h725q18 0 30.5 -12.5t12.5 -29.5v-128zM512 512l-299 -128h214l42 -128l299 128h-213z" />
    <glyph glyph-name="shoudongmoshi" unicode="&#xe68d;" 
d="M810 468q-24 24 -58 24q-18 0 -33 -7q-9 24 -30 38.5t-47 14.5q-20 0 -38 -10q-11 20 -30 31.5t-42 11.5q-17 0 -28 -5v148q0 33 -24 57t-57.5 24t-57.5 -24t-24 -57v-262q-3 3 -6 5.5t-6.5 5.5t-6.5 4q-24 15 -54 15q-5 0 -12.5 -0.5t-10.5 -0.5h-1h-4h-1l-25 -3
q-12 -1 -19 -11q-6 -9 -4 -21q58 -218 59 -226q17 -104 99 -174q81 -70 190 -70q121 0 207 86t86 208v145q2 29 -22 53z" />
    <glyph glyph-name="dingwei" unicode="&#xe64a;" 
d="M512.5 439q-47.5 0 -81.5 34t-34 82t34 82.5t81.5 34.5t81.5 -34.5t34 -82.5t-34 -82t-81.5 -34zM512.5 640q-34.5 0 -59 -25t-24.5 -60t24.5 -59.5t59 -24.5t59 24.5t24.5 59.5t-24.5 60t-59 25zM512 31l-12 15q-13 15 -31.5 38.5t-62 86t-76.5 120.5t-59.5 129.5
t-26.5 125.5q0 116 78.5 198.5t190.5 82.5q110 0 189 -82.5t79 -198.5q1 -54 -26 -125.5t-60 -129.5t-76.5 -120t-62.5 -86t-32 -39zM513 795q-99 0 -168.5 -73t-69.5 -176q0 -55 28.5 -127.5t73.5 -143.5t75.5 -114.5t59.5 -79.5q29 36 60 79.5t76 114.5t73.5 143.5
t28.5 127.5q-1 103 -70.5 176t-166.5 73zM705 241v-31h63l64 -237h-634l63 237h48v31h-79l-79 -300h728l-79 300h-95z" />
    <glyph glyph-name="wangluo-copy" unicode="&#xe603;" horiz-adv-x="1025" 
d="M468 99q-19 19 -18 48q5 75 -47.5 127.5t-127.5 47.5q-26 -1 -45.5 16.5t-20.5 43.5t17 46t45 21q62 4 120.5 -17.5t102.5 -65.5t65.5 -102.5t17.5 -121.5q-1 -26 -21 -44t-46 -17q-24 0 -42 18v0v0zM681 114q-18 19 -18 45q1 76 -27 145t-81 122.5t-122.5 81.5
t-145.5 27q-26 0 -44.5 18.5t-18 45t19.5 45t45 19.5q102 1 194 -36.5t163 -108.5t108.5 -163t35.5 -194q0 -26 -19 -45t-45 -20q-26 0 -45 18v0v0zM893 130q-17 18 -18 44q0 115 -43.5 219.5t-124.5 185.5t-185.5 124.5t-219.5 43.5q-27 1 -45 19.5t-17 45t20.5 45
t45.5 18.5q140 -1 267 -54t225 -151t151 -225t54 -267q0 -26 -18.5 -45.5t-44.5 -20.5q-28 -1 -47 18v0v0zM227 206q-23 -22 -23.5 -54t22 -54.5t54.5 -22t54.5 23.5t23 55t-21.5 54t-54 21.5t-55 -23.5v0v0z" />
    <glyph glyph-name="wangyin" unicode="&#xe653;" 
d="M705 427q-7 -28 12 -37q5 -3 14 -3t14 6v-6v0h29v0q1 4 3 18.5t5 26.5q2 6 4.5 16t4.5 16v0q-7 -2 -15.5 -3.5t-16.5 -2.5v0v-3q-4 4 -8 9q-5 2 -14 -1t-17 -11q-8 -5 -15 -25zM734 424q6 23 14.5 23t8.5 -15q0 -5 -3 -8q0 -2 -1.5 -6t-1.5 -6l-3 -5q-6 -6 -11.5 -6
t-5.5 9q3 5 3 14zM501 356h-29l-8 -15q-1 -1 -2 -2.5t-2 -2t-2 -0.5h-6h-3l-5 -17h11q3 0 8 1t6 1q3 0 6 3l6 3h40l5 17h-28zM637 415q1 0 6 17q0 3 3 3h3q39 0 54 12q13 9 22 34q0 1 1.5 5.5t1.5 5.5q0 11 -6 14q-8 12 -42 12h-9h-37v-6l-8 -40q-20 -85 -23 -88h34
q-1 5 -1 12t1 13v6zM649 461l8 40v2v3h3l20 -3q13 -4 8 -19.5t-14 -19.5q-6 -3 -20 -3h-5v0zM444 299h17l-6 -15h-17l-6 -17h17l-8 -31q0 -6 3 -8q0 -3 5 -3h9h31l6 20l-17 -3q-12 0 -9 3l6 22h28l6 17h-28l5 15h29l6 17h-72zM279 447q17 68 20 76v0h-32l-17 -74
q-5 -25 -14 -31q-4 -8 -14 -8q-8 0 -12.5 3.5t-4.5 10.5v3l3 20q17 65 20 74v0h-37v-6l-17 -74l-3 -3l-3 -20q0 -11 3 -14q8 -14 39 -14q28 0 40 8q21 14 26 40zM589 276v0q-3 -3 -6 -3h-6v9h-22v-49q0 -5 3 -5q2 -3 19 -3h15l5 17h-14h-6h-2q-3 0 0 3v11h14q8 0 14 6
q1 1 2.5 4t3.5 4l3 12h-20zM418 452q-3 0 -8.5 -1.5t-8.5 -1.5q-8 0 -14 -2v0v0q0 -9 -3 -15q0 -2 -1.5 -8.5t-1.5 -11.5q-3 -5 -3 -11q0 -1 -1.5 -4.5t-1.5 -6.5v0v0h15h14v0v0q0 8 3 11q0 1 1.5 6.5t1.5 10.5q0 3 1 8.5t1 8.5q6 6 6 17v0v0zM458 387q23 0 34 14
q11 11 11 26q4 19 -2 31q-6 8 -26 8q-23 0 -34 -11q-7 -7 -14 -28q-7 -28 11 -37q3 0 10 -1.5t10 -1.5zM455 427q5 22 14 22q5 0 6.5 -5.5t-0.5 -13.5q0 -12 -5.5 -17.5t-8.5 -5.5q-6 0 -6 8v12zM418 472q-12 6 -25 -3q-12 -8 -3 -17q12 -6 25 3q14 14 3 17zM356 466v0
l31 140q4 21 21 36.5t39 17.5v0h-12h-3q-21 -4 -38 -19.5t-21 -34.5l-35 -142q-2 0 -5 -3l-6 -3l3 8v0q-5 -1 -10.5 -1.5t-9 -1.5t-8.5 -2v0q-2 -4 -4 -18.5t-5 -27.5q-6 -17 -6 -25v0h29v0q0 4 2 10.5t3 14.5q6 17 6 29q2 0 4.5 1.5t4.5 1.5h2l-65 -279q-6 -24 6.5 -40.5
t36.5 -16.5h11q-23 0 -36 16.5t-7 40.5l52 225h22v0q2 5 6 31l3 8q5 25 3 29q0 5 -14 5zM856 464v0v0v0q-3 -8 -6 -13t-4.5 -7t-3 -5t-3.5 -9v2l-3 37v0l-28 -5v0v-3v0q1 -4 1 -8.5t2 -11.5q0 -3 1.5 -10t1.5 -10q0 -5 1 -15t1 -19q-4 -7 -9.5 -17t-10.5 -17l-5 -9
q0 -3 -3 -3h-3h-3l-5 -14h17q14 0 20 11l73 131v0q-28 -5 -31 -5zM705 247h-8l25 89h9l3 8v-11q0 -12 17 -12h14l6 17h-6q-6 0 -6 3v12h-28v0q-37 0 -43 -3l-14 -6l3 9h-26l-5 -17l-29 -91h-5l-6 -17h51l-3 -6h26l3 6h8zM674 247h-20l6 20h20zM686 287q-6 0 -12 -3l-11 -5
l8 23h20zM686 319l-12 -6l6 23h20l-6 -17q0 1 -1.5 1.5t-3.5 0t-3 -1.5zM722 304h32l-6 -14h-31l-6 -14h29l-20 -29l-3 -2q-3 -3 -6 -3h-8l-6 -17h20q14 0 20 11l14 20l3 -20q0 -6 5 -6q2 0 3.5 -1t2.5 -1h6h8l6 19h-3h-5v3l-3 20h-12l6 6h28l6 14h-28l5 14h29l6 17h-83z
M856 873h-688q-59 0 -100.5 -42t-41.5 -100v-688q0 -58 42 -100.5t100 -42.5h688q59 0 100.5 42.5t41.5 100.5v688q0 58 -42 100t-100 42zM953 606l-103 -441q-4 -21 -21 -36.5t-38 -17.5h-3h-219q-24 0 -36.5 16.5t-6.5 40.5l14 57h6l6 20h-9l12 42h28h11q6 0 9 3
q1 1 2.5 2t2.5 2t1 2q5 6 5 14l15 46h-40q-12 -3 -17 -3q-3 0 -3 -3l8 40h3v0q2 5 6 31l3 9q5 24 3 28l34 151q4 21 21 36.5t39 17.5h-9h-3q-21 -5 -38 -20t-22 -34l-34 -143h-8q-12 0 -17 -2l-6 -3l3 8v0q-7 -1 -15.5 -2.5t-15.5 -2.5v0q-2 -5 -4 -19t-5 -27
q-1 -4 -2.5 -12.5t-3.5 -12.5v0h29v0q3 8 5 25q6 17 6 29q2 0 4.5 1t4.5 1q5 0 5 -8.5t-5 -25.5l-3 -5q0 -3 -1.5 -7.5t-1.5 -7.5v0h14l-3 -39h-22l-35 -114q0 -6 -2 -9v0q0 -1 0.5 -1.5t2 -1.5t2.5 -2q2 -2 4.5 -2t4.5 -1h14h3l-14 -57q-7 -24 6 -40.5t36 -16.5h-219h-5
h-222q-24 0 -36.5 16.5t-6.5 40.5l103 441q6 24 25.5 40.5t42.5 16.5h207h6h256h9h190q24 -3 36.5 -20t6.5 -40zM532 250l11 37v0l-11 -45q-3 0 -3 3v0q3 2 3 5zM546 302v0v0v0zM589 310l-3 -8h-6h-25l3 8h31zM563 324l3 14h31l-3 -11h-22q-2 0 -4.5 -1.5t-4.5 -1.5z" />
    <glyph glyph-name="wangyeduan" unicode="&#xe60c;" 
d="M504.5 -128q-102.5 0 -196 40t-161 107.5t-107 160.5t-39.5 195.5t39.5 196t107 161t161 107.5t196 40t195.5 -40t160.5 -107.5t107.5 -161t40 -196t-40 -195.5t-107.5 -160.5t-160.5 -107.5t-195.5 -40zM504.5 808q-117.5 0 -217 -58t-157 -157.5t-57.5 -217
t57.5 -216.5t157 -157t217 -58t217 58t157 157t57.5 216.5t-57.5 217t-157 157.5t-217 58zM711 132l-12 -7l-34 -21l-21 -15q-20 -10 -47 -18v20l-5 47q-3 27 -8 35q-8 14 -24 21q-3 1 -8.5 3t-8.5 3.5t-6 4.5q-3 4 -8.5 15.5t-8.5 16.5q-16 25 -16 29v64l8 54l15 12l19 21
l13 5l44 -9h32l12 -27l31 -25l18 -30l24 -8h28l18 -23l12 -24l4 -18v-28l-3 -17q-27 -46 -68 -81zM600 626l-31 -17l-12 -33l-18 -17h-62l-28 -11l-2 -23l-11 -19l-3 -20l6 -17l7 -17q17 -20 0 -35q-22 0 -26 7q-3 5 -21.5 18.5t-20.5 14.5q-2 3 -8 6t-11 4l-5 2l-23 8
l-21 2l1 30l-1 26l-9 18l-24 19l-2 20l3 11q94 93 226 93q71 0 139 -32l-1 -8z" />
    <glyph glyph-name="liangdu" unicode="&#xe61c;" 
d="M512 384zM359 384q0 63 45 108t108 45t108 -45t45 -108t-45 -108t-108 -45t-108 45t-45 108zM473 658v167q0 16 11.5 27.5t27.5 11.5v0q16 0 27.5 -11.5t11.5 -27.5v0v-167q0 -16 -11.5 -27.5t-27.5 -11.5v0q-16 0 -27.5 11.5t-11.5 27.5v0zM473 -57v167q0 16 11.5 27.5
t27.5 11.5v0q16 0 27.5 -11.5t11.5 -27.5v0v-167q0 -16 -11.5 -27.5t-27.5 -11.5v0q-16 0 -27.5 11.5t-11.5 27.5v0zM678 550q-11 12 -11 28t11 27v0l118 118q12 12 28 12t27 -12v0q12 -11 12 -27t-12 -28v0l-118 -118q-11 -11 -27 -11v0q-16 0 -28 11v0zM173 45
q-12 11 -12 27t12 27v0l118 119q11 11 27 11t28 -11v0q11 -12 11 -28t-11 -27v0l-118 -118q-12 -12 -28 -12v0q-16 0 -27 12v0zM786 345q-16 0 -27.5 11.5t-11.5 27.5v0q0 16 11.5 27.5t27.5 11.5v0h167q16 0 27.5 -11.5t11.5 -27.5v0q0 -16 -11.5 -27.5t-27.5 -11.5v0h-167
v0zM71 345q-16 0 -27.5 11.5t-11.5 27.5v0q0 16 11.5 27.5t27.5 11.5v0h167q16 0 27.5 -11.5t11.5 -27.5v0q0 -16 -11.5 -27.5t-27.5 -11.5v0h-167v0zM796 45l-118 118q-11 11 -11 27t11 28v0q12 11 28 11t27 -11v0l118 -119q12 -11 12 -27t-12 -27v0q-11 -12 -27 -12v0
q-16 0 -28 12v0zM291 550l-118 118q-12 12 -12 28t12 27v0q11 12 27 12t28 -12v0l118 -118q11 -11 11 -27t-11 -28v0q-12 -11 -28 -11v0q-16 0 -27 11v0z" />
    <glyph glyph-name="xiaozhushoubianqian" unicode="&#xe7a9;" 
d="M918 831v-650l-244 -244h-568v230v14v81v155v414h348h139h81h74h170zM803 181h-129v-129zM837 262v487h-650v-730h406v243h244v0z" />
    <glyph glyph-name="microphonehuatong" unicode="&#xe6a5;" 
d="M662 567q18 0 18 -18v-183q0 -94 -63 -161.5t-156 -76.5v-219h91q19 0 19 -18.5t-19 -18.5h-219q-19 0 -19 18.5t19 18.5h91v219q-93 9 -156 77q-63 67 -63 161v183q0 18 18 18t18 -18v-183q0 -85 58.5 -143t143 -58t143 58t58.5 143v183q0 18 18 18zM326 249
q48 -48 116.5 -48t116.5 48t48 117v365q0 69 -48 117t-116.5 48t-116.5 -48t-48 -117v-365q0 -69 48 -117zM352 821.5q38 37.5 90.5 37.5t90 -37.5t37.5 -90.5v-365q0 -53 -37.5 -90.5t-90 -37.5t-90.5 37.5t-38 90.5v365q0 53 38 90.5z" />
    <glyph glyph-name="shouyeshouye" unicode="&#xe601;" 
d="M949 377l-440 411l-441 -410q-6 -6 -6.5 -15t5.5 -15.5t15 -6.5t15 6l412 383l411 -384q6 -6 14 -6q10 0 16 7q6 6 6 15t-7 15v0zM949 377zM815 368q-9 0 -15.5 -6t-6.5 -15v-327h-170v227h-228v-227h-171v327q0 9 -6 15t-15 6t-15.5 -6t-6.5 -15v-370h257v228h142v-228
h256v370q0 9 -6 15t-15 6v0zM815 368zM665 674h128v-114q0 -9 6.5 -15t15.5 -6t15 6t6 15v157h-171q-9 0 -15 -6.5t-6 -15.5t6 -15t15 -6v0zM665 674z" />
    <glyph glyph-name="pcmoshi" unicode="&#xe685;" horiz-adv-x="1078" 
d="M1044 895h-1010q-15 0 -24.5 -9.5t-9.5 -24.5v-674q0 -15 9.5 -24t24.5 -9h1010q15 0 24.5 9t9.5 24v674q0 15 -9.5 24.5t-24.5 9.5v0zM1011 255h-944v572h944v-572v0zM775 -49h-135v135h-202v-135h-135q-15 0 -24.5 -9t-9.5 -24t9.5 -24.5t24.5 -9.5h135h202h135
q15 0 24 9.5t9 24.5t-9 24t-24 9v0z" />
    <glyph glyph-name="guanwang" unicode="&#xe642;" horiz-adv-x="1026" 
d="M383 866q-5 0 -14.5 -2.5t-37.5 -12.5t-55 -23.5t-63.5 -39.5t-67.5 -57q31 -15 64.5 -29t52.5 -21l18 -6q18 59 43.5 107t42.5 66l17 18v0zM383 866zM113 696q-4 -4 -11 -13t-25 -38.5t-32.5 -62t-28 -82t-16.5 -100.5h239q-3 100 29 231q-91 27 -155 65v0v0zM113 696z
M383 -113q-5 1 -14.5 3.5t-37.5 12.5t-55 23.5t-63.5 39.5t-67.5 57q68 33 135 56q18 -59 45 -108.5t39 -63t19 -20.5v0v0zM383 -113zM113 58q-4 4 -11 13t-25 38.5t-32.5 61.5t-28 82t-16.5 101h239q-3 -100 29 -232q-19 -5 -37.5 -11.5t-33.5 -12.5t-28.5 -12t-23.5 -11
t-17 -9t-11 -6.5t-4 -1.5v0zM113 58zM482 880q-3 -1 -10 -3t-26 -15.5t-37.5 -34t-41.5 -63.5t-42 -99q14 -6 77.5 -15t79.5 -6v236v0zM482 880zM312 620q-25 -96 -28 -220h197v198q-60 0 -107 9q-30 5 -62 13v0zM312 620zM482 -125q-3 0 -10 2.5t-26 15.5t-37.5 34
t-41.5 63.5t-42 99.5q14 5 77.5 14.5t79.5 6.5q1 -34 0 -236v0v0zM482 -125zM312 134q-25 96 -28 220h197v-198q-60 0 -107 -8q-30 -6 -62 -14v0zM312 134zM627 866q6 0 15 -2.5t37 -12.5t55 -23.5t63.5 -39.5t67.5 -57q-30 -15 -64 -29t-53 -21l-18 -6q-18 59 -43.5 107
t-42.5 66l-17 18v0zM627 866zM897 696q4 -4 11 -13t25.5 -38.5t33 -62t27.5 -82t16 -100.5h-239q3 100 -28 231q40 12 78.5 28.5t56.5 26.5l19 10v0zM897 696zM627 -113q6 1 15 3.5t37 12.5t55 23.5t63.5 39.5t67.5 57q-30 15 -64 28.5t-52.5 20.5l-18.5 7
q-18 -59 -45 -108.5t-39 -63t-19 -20.5v0v0zM627 -113zM897 58q4 4 11 13t25.5 38.5t33 61.5t27.5 82t16 101h-239q3 -100 -28 -232q40 -11 78.5 -27.5t57 -26.5l18.5 -10v0zM897 58zM528 880q4 -1 10.5 -3t25.5 -15.5t37.5 -34t42 -63.5t41.5 -99q-13 -6 -77 -15t-80 -6
v236v0zM528 880zM698 620q26 -96 28 -220h-197v198q58 -6 169 22v0zM698 620zM528 -125q4 0 10.5 2.5t25.5 15.5t37.5 34t42 63.5t41.5 99.5q-13 5 -77 14.5t-80 6.5q-1 -34 0 -236v0v0zM528 -125zM698 134q26 96 28 220h-197v-198q58 7 169 -22v0zM698 134z" />
    <glyph glyph-name="yingyong" unicode="&#xe624;" horiz-adv-x="1039" 
d="M511 66zM975 832h-927q-20 0 -34 -14.5t-14 -34.5v-801q0 -20 14 -34.5t34 -14.5h927q20 0 34 14.5t14 34.5v801q0 20 -14 34.5t-34 14.5v0zM384 783q20 0 34 -14t14 -34t-14 -34t-34 -14t-34 14t-14 34t14 34t34 14v0zM240 783q20 0 34 -14t14 -34t-14 -34t-34 -14
t-34 14t-14 34t14 34t34 14v0zM96 783q20 0 34 -14t14 -34t-14 -34t-34 -14t-34 14t-14 34t14 34t34 14v0zM975 -18h-927v657h927v-657v0zM766 480l-250 -102l-250 102l249 97zM245 438l249 -104v-282q-29 13 -62 27q-27 12 -62 27q-35 16 -69 30q-13 6 -23 15.5t-17.5 20.5
t-11.5 23.5t-4 24.5v218v0zM781 438v-217q0 -15 -5.5 -29t-14.5 -26t-20 -21.5t-21 -14.5q-33 -14 -64 -27q-32 -13 -61 -25l-64 -26v282z" />
    <glyph glyph-name="jieshu" unicode="&#xe696;" 
d="M719 657q36 -26 64.5 -59t48.5 -70.5t30.5 -80t10.5 -86.5q0 -75 -28.5 -140.5t-77.5 -114.5t-114.5 -77.5t-140.5 -28.5t-140.5 28.5t-115 77.5t-77.5 114.5t-28 140.5q0 43 10 84t28.5 78.5t46 69.5t61.5 58q18 13 38.5 9.5t33.5 -20t9.5 -37.5t-20.5 -34
q-51 -37 -78 -91t-27 -117q0 -53 20.5 -100t55.5 -82t82 -56t100.5 -21t100.5 21t82 56t56 82t21 100q0 63 -29.5 119t-81.5 93q-18 12 -21.5 33t8.5 39q12 17 33 20.5t39 -8.5v0zM512 359q-21 0 -36 15t-15 36v306q0 21 15 36.5t36 15.5t36 -15.5t15 -36.5v-306
q0 -21 -15 -36t-36 -15v0zM512 359z" />
    <glyph glyph-name="yejianmoshi" unicode="&#xe657;" 
d="M764 660q-51 51 -116 79q-21 9 -36.5 -6.5t-6.5 -36.5q37 -87 19.5 -179.5t-84.5 -159.5q-88 -87 -218 -87q-70 0 -122 22q-20 9 -35.5 -7t-6.5 -36q28 -65 78 -116q53 -53 121 -81t143 -28t143 28t121 81t81 121t28 142.5t-28.5 142.5t-80.5 121zM716 172
q-91 -91 -220 -91t-220 91q-27 27 -29 40q-4 16 14 16t59 -7.5t69 -7.5q47 1 99.5 25t94.5 67q76 80 98 198q12 67 1 134q4 8 17.5 3t22.5 -14q61 -61 81 -145.5t-3.5 -166.5t-83.5 -142z" />
    <glyph glyph-name="chongdianzhong" unicode="&#xe617;" 
d="M512 503l-283 -119h201l41 -119l283 119h-201zM913 466v82q0 34 -24 58t-58 24h-679q-34 0 -58 -24t-24 -58v-320q0 -33 24 -57.5t58 -24.5h684q33 0 57.5 24.5t24.5 57.5v82q16 0 28 11.5t12 29.5v82q-3 11 -16.5 22t-28.5 11zM872 425v-82v-119q0 -16 -11.5 -28.5
t-29.5 -12.5h-679q-17 0 -29 12t-12 29v320q0 16 11.5 28.5t29.5 12.5h684q16 0 28.5 -12t12.5 -29v-119h-5z" />
    <glyph glyph-name="fa-yingyong" unicode="&#xe605;" 
d="M718 628v-3q0 84 -60 145l-1 2q-62 60 -148 60t-146.5 -60.5t-60.5 -146.5v3h416zM675 519v0q8 7 18 7h1h1q11 0 19 -9v0v0q9 -7 9 -20q0 -12 -9 -20v0q-8 -8 -20 -8t-20 8l-1 1q-7 7 -7 19q0 13 8 20zM348 625v0q0 67 47 114q48 47 114 47q67 0 114 -47l2 -2
q46 -46 46 -112v3h-323v-3zM304 517v0l1 2q9 7 19 7h1h1q11 0 19 -9v0q8 -8 8 -20t-8 -20v0q-8 -8 -20 -8t-21 8v1q-8 8 -8 19q0 12 8 20v0zM302 642v-73q-16 -5 -29 -17l-2 -1q-21 -23 -21 -54q0 -30 20 -51l1 -2q22 -22 54 -22q31 0 53 22v0q22 23 22 53q0 31 -22 54v0
q-13 13 -30 18v73h323v-73q-17 -5 -29 -17l-1 -1q-22 -23 -22 -54q0 -29 21 -51l1 -2q21 -22 53 -22t53 22v0q22 22 22 53t-22 54q-13 13 -29 18v73h-416zM879 662q-30 29 -72 29h-597q-43 0 -74 -30q-30 -31 -30 -73v-549q0 -42 30 -73h1v-1q30 -30 73 -30h597q43 0 73 31
v0q30 30 30 73v14q2 0 2.5 127.5t0 255t-2.5 127.5v25q0 43 -30 73zM730 633h77q18 0 32 -13q13 -13 13 -32v-549q0 -19 -13 -32v0q-13 -13 -32 -13h-597q-19 0 -32 13q-14 13 -14 32v549q0 19 14 32q13 13 32 13h520z" />
    <glyph glyph-name="zonglan" unicode="&#xe625;" horiz-adv-x="1026" 
d="M372 802q26 0 44 -18t18 -44v-247q0 -26 -18 -44.5t-44 -18.5h-248q-26 0 -44 18.5t-18 44.5v247q0 26 18 44t44 18h248zM372 306q26 0 44 -18t18 -43v-249q0 -26 -18 -44t-44 -18h-248q-26 0 -44 18t-18 44v249q0 25 18 43t44 18h248zM868 306q26 0 44 -18t18 -43v-249
q0 -26 -18 -44t-44 -18h-247q-26 0 -44.5 18t-18.5 44v249q0 25 18.5 43t44.5 18h247zM1006 693q20 -20 20 -47t-20 -45l-184 -185q-20 -20 -46.5 -20t-45.5 20l-185 185q-19 18 -19 45t19 47l185 184q19 19 45.5 19t46.5 -19z" />
    <glyph glyph-name="e" unicode="&#xe848;" 
d="M966 334v-39q-37 -2 -39 -2h-592h-41q9 -45 10 -47q34 -101 153 -140q165 -54 342 15q3 1 76 33q0 -164 -1 -200q0 -6 -6.5 -14t-12.5 -10q-208 -84 -410 -39q-72 16 -132 55t-99.5 92t-61 118t-21 130.5t25.5 132t74 121.5q59 65 134 98q-9 -21 -77 -166h363
q8 91 -33 159q-37 59 -105 71q-215 38 -384 -126q-15 -15 -31 -33t-37.5 -43t-33.5 -39q4 15 10.5 41t11.5 44.5t11 34.5q35 104 110.5 179.5t167 109t196.5 23.5t196 -68q147 -93 201 -302q8 -27 13.5 -58t12 -71t9.5 -60z" />
    <glyph glyph-name="wenjianjiakai" unicode="&#xe62a;" 
d="M101 790l484 -1v96h407v-107h32v-605l-31 440q0 21 -14 36t-35 15l-843 2v124zM880 533h-835q-15 0 -28.5 -15.5t-13.5 -35.5l85 -559q0 -21 14.5 -36t35.5 -15h836q21 0 35.5 15t14.5 36l-85 559q0 22 -16 36.5t-43 14.5zM758 248v-105h-196v1h-104v-1h-196v105h496z
" />
    <glyph glyph-name="youdaoyunbiji" unicode="&#xe69c;" 
d="M602 805l345 -354l-413 -446l-429 -36l43 421z" />
    <glyph glyph-name="10wangyefangcuangai" unicode="&#xe60d;" 
d="M511 -128q-10 6 -28.5 17t-71.5 49.5t-101.5 81.5t-107.5 111.5t-101.5 141t-71.5 169.5t-29 197v256h1023v-256q0 -79 -17.5 -155.5t-47.5 -139.5t-68 -121.5t-80.5 -105t-85 -87t-81 -69t-68 -49t-46.5 -30.5zM937 809h-426v-340h-426q17 -76 50.5 -145.5t70 -118.5
t82.5 -93t81.5 -70t72.5 -48t49.5 -28t19.5 -9v0v-85v597h426q5 22 5 50.5t-2.5 65t-2.5 54.5v170z" />
    <glyph glyph-name="youdao" unicode="&#xe680;" 
d="M232 578l-19 -36l-45 -2q-30 0 -37 -1.5t-7 -7.5q0 -15 40 -20q15 -2 19.5 -4t2.5 -6q-4 -13 -33 -50t-52 -61q-34 -34 -34 -36.5t12 -2.5q11 0 30 8.5t34 20.5q10 8 13.5 8.5t4.5 -4.5q4 -8 -4 -39q-8 -36 -14 -69q-11 -55 -35 -111l-1.5 -4.5t1.5 -2t5 -0.5t10 1
q27 3 45 20.5t24 44.5q4 20 20 51t30 47q22 24 60 39.5t74 15.5q11 0 13 -2t2 -15v-17l-36 -2q-39 -3 -57 -11q-45 -20 -46 -66.5t44 -73.5q31 -19 97 -27l29 -3l4 16q5 16 8 42q3 18 5 21.5t12 3.5q12 -1 45 -19q66 -38 145 -58q37 -9 91 -11t94 5q50 8 90.5 30.5
t40.5 41.5q0 8 -25 -5q-4 -2 -11 -6q-39 -20 -73.5 -26.5t-84.5 -4.5q-54 2 -93 14q-34 10 -69 26t-37 23q-3 5 11 21q16 18 18 47t-12 47q-7 10 -26 25t-24 15q-9 0 -15 -41q-2 -14 -0.5 -17.5t8.5 -6.5q10 -4 22 -18t12 -22q0 -9 -8 -18t-17 -9q-8 0 -37.5 14.5
t-37.5 23.5q-7 5 -2 31q6 28 5.5 60.5t-6.5 41.5q-7 10 -29 20q-14 7 -26 9t-45 2q-48 0 -87 -6q-8 -2 -18 -3.5t-15 -2.5l-5 -1q-8 0 8 21q2 3 5 6q12 16 30.5 20.5t80.5 7.5q143 7 136 25q-4 4 -89 3q-111 0 -114 3q-1 1 -1 5q0 8 7 18q6 9 2.5 14t-22.5 15l-21 11z
M386 437q10 -9 10 -11q0 -3 -41 -11q-56 -10 -112 -45l-20 -12l2 28q2 24 9 31.5t38 19.5q25 10 64 10t50 -10zM369 283q8 -10 0 -45.5t-18 -35.5q-14 0 -30.5 19t-16.5 34q0 7 7.5 17t15.5 13q11 5 24.5 4t17.5 -6zM824 595q-6 -10 -29 -35q-25 -27 -35.5 -24.5t-13.5 35.5
q-2 25 -5 29q-3 3 -24 -6l-21 -9l2 -24l1 -24l-21 -4q-22 -2 -37 -2q-14 0 -19 -6t2 -14q5 -7 54 -7t56 -4q16 -10 -28 -27q-7 -3 -15 -6q-40 -13 -44 -17t-21 -96q-17 -91 -11 -97q6 -7 43 -18.5t67 -15.5q37 -5 80 0t50 16q6 9 20 84l3 21q12 63 12 75t-9 23l-3 3
q-14 16 -25 21t-36 7q-29 3 -30 10q-2 10 15 16.5t58 11.5q88 11 83 25q-2 6 -42 4q-26 -1 -33.5 0t-9.5 6q-3 8 12 22l14 15l-25 11q-24 11 -26 11t-9 -10zM786 451q32 -6 34 -21q2 -13 -27 -13q-18 0 -59 -11q-40 -10 -42 -8q-4 5 -1.5 17.5t8.5 18.5q10 9 12 9q1 0 4.5 1
t9.5 2.5t11 3.5q21 5 25.5 5.5t24.5 -4.5zM817 370q17 -17 -46 -24q-36 -4 -62 -13q-31 -5 -32 0q0 11 14 24.5t32 17.5q20 6 53.5 4t40.5 -9zM803 292q1 -14 -4 -20t-20 -9q-20 -5 -65.5 0.5t-45.5 12.5q0 4 9 11.5t22 12.5q15 7 59 6l44 -1zM541 497q-5 -25 -5 -30
q0 -6 32 -28l32 -23l1 14q5 49 -42 83l-13 9z" />
    <glyph glyph-name="win" unicode="&#xe618;" 
d="M437 354v-331l-362 60v271h362zM437 745v-331h-362v271zM949 354v-422l-452 60v362l436 6zM949 806v-392h-452v331l452 91v-30z" />
    <glyph glyph-name="e1" unicode="&#xea35;" 
d="M678 535q14 0 32 -2q-21 100 -117 166.5t-218 66.5q-90 0 -166.5 -37t-121 -102.5t-44.5 -142.5q0 -132 133 -225l-34 -99l117 58q84 -17 116 -17q15 0 31 1q-10 36 -10 70q0 109 82 186t200 77zM499 625q19 0 30.5 -11.5t11.5 -30t-11.5 -30t-30.5 -11.5t-34 12t-15 30
t15 29.5t34 11.5zM267 542q-20 0 -35 12t-15 30t15 29.5t35 11.5q19 0 30 -11.5t11 -30t-11 -30t-30 -11.5zM981 276q0 65 -39 121t-104 88t-139 32q-118 0 -200 -70.5t-82 -170.5t82 -170.5t200 -70.5q34 0 100 17l91 -50l-25 83q116 87 116 191zM607 318q-12 0 -22.5 10
t-10.5 22.5t10.5 23t22.5 10.5q19 0 30.5 -10t11.5 -23t-11.5 -23t-30.5 -10zM790 318q-12 0 -22.5 10t-10.5 22.5t10.5 23t22.5 10.5q18 0 30 -10t12 -23t-12 -23t-30 -10z" />
    <glyph glyph-name="vpn" unicode="&#xe926;" 
d="M384 683h256l-128 -128zM448 271q-21 -25 -21 -58q0 -35 25 -60t60 -25v0q35 0 60 25t25 60q0 36 -25 60l61 61q50 -51 50 -121t-50 -120t-121 -50t-121 50t-50 120q0 69 47 118v0l302 302q21 20 56 35t64 15h1q70 0 120 -50t50 -121t-50 -121t-120 -50t-121 50l61 61
q24 -25 60 -25v0q35 0 60 25t25 60t-25 60t-60 25q-36 0 -60 -25zM273 572q-24 25 -60 25q-35 0 -60 -25t-25 -60t25 -60t60 -25q36 0 60 25l61 -61q-51 -50 -121 -50t-120 50t-50 121t50 121t120.5 50t120.5 -50l118 -118l-61 -61z" />
    <glyph glyph-name="touyingyi" unicode="&#xe681;" horiz-adv-x="1026" 
d="M126 -63q-53 0 -89.5 36.5t-36.5 89.5v256q0 35 17.5 64t47.5 45l2 3l-2 2q-65 58 -65 144q0 79 56 135t134.5 56t135 -56t56.5 -135q0 -68 -49 -128l-3 -4h128l-4 4q-68 68 -68 163q4 93 65 151q62 66 152 66h7q92 0 157.5 -65.5t65.5 -158.5q0 -59 -28.5 -109
t-80.5 -82l-3 -2l3 -2q44 -37 44 -96v-4l195 130h3q23 0 41.5 -18.5t18.5 -44.5v-386q0 -25 -16.5 -43t-41.5 -20h-2l-198 163v-37q0 -53 -36.5 -89.5t-89.5 -36.5h-516v9zM963 -7v396l-197 -133v-100l197 -163v0zM126 386q-28 0 -48 -19.5t-20 -47.5v-256q0 -28 20 -48
t48 -20h514q28 0 47.5 20t19.5 48v256q0 28 -19.5 47.5t-47.5 19.5h-514zM607 773q-67 0 -116 -49q-46 -50 -46 -119q1 -64 47 -110t111 -48h4q68 0 117 49q46 50 46 118q-1 65 -47 111t-111 48h-5zM191 707q-56 0 -96 -39q-38 -46 -34 -98q1 -50 37.5 -85.5t85.5 -37.5h7
q56 0 95 39t35 96q-2 50 -38 85.5t-85 37.5q-3 2 -7 2z" />
    <glyph glyph-name="search" unicode="&#xe505;" 
d="M205 23v0v0v0q-12 -10 -26 -10q-15 0 -27 11q-11 11 -11 27v0q0 7 2 13q3 9 11 16h-1l206 204q-52 74 -52 165q0 9 1 19q1 18 6 35q3 56 51 117q24 41 87 77q49 29 109 35l-1 1q16 2 32 2q4 0 3 0q25 0 50 -5q67 -10 122 -52q20 -10 44.5 -40t40.5 -66l-3 10
q7 -10 18 -41q16 -43 16 -92v0q0 -20 -3 -38q-6 -49 -29 -94q-39 -73 -109 -113l7 2q-12 -11 -54 -26q-56 -20 -113 -18q-95 4 -171 66l-206 -206v1v0zM583 205h13q46 0 88 18q53 19 91 61q7 8 -1 0q5 5 9 10q40 47 52 108q3 15 1 0q3 24 3 45q0 15 -2 30q0 2 -1 6v5
q-11 66 -53 116q-12 19 -41 39.5t-64 32.5q3 1 -3 3q-24 10 -69 12q-62 3 -115 -23q-69 -31 -106 -97q-3 0 -9.5 -12t-13 -34t-9.5 -44q-2 -1 -2.5 -11.5t0 -28t3.5 -33.5q8 -46 31 -84q2 -7 18.5 -27t37.5 -37l-4 1q11 -12 53 -33q3 -2 7 -3l-26 14q7 -4 15 -8v0
q48 -25 104 -26h-7z" />
    <glyph glyph-name="draw" unicode="&#xe7c6;" 
d="M212 168q-40 70 -49 153l1 -16q-4 25 -4 62q0 16 2 33q6 82 44 153t100 122q45 39 110 63t137 24q17 0 34 -1v0h1q13 0 22.5 9.5t9.5 22.5q0 12 -8.5 21.5t-20.5 10.5q-18 1 -38 1q-108 0 -201.5 -47t-157.5 -128q-98 -126 -98 -285q0 -125 62 -232q8 -14 27 -14
q13 0 22.5 9.5t9.5 22.5q0 9 -5 16v0zM820 321q-8 5 -18 5q-13 0 -22.5 -9t-9.5 -23q0 -16 14 -26q49 -34 18 -128q-9 -29 -36 -50.5t-58 -32t-54 -15.5t-34 -5q-1 1 -3 1q-14 0 -23 -9.5t-9 -22.5q0 -12 7 -21t18 -11q5 -1 9 -1h1q13 0 35 4q66 12 122 42q18 3 46 33t40 68
q46 139 -43 201zM916 767l-6 5q-7 5 -17 5q-12 0 -20 -9l-455 -455q-10 -10 -18.5 -24.5t-16 -37t1.5 -48.5t37 -48q30 -24 58.5 -28t48.5 8.5t31 23.5t18 21l343 550q5 7 5 16q0 13 -10 21v0zM405 131q-24 19 -56 19q-43 0 -71 -35q-7 -9 -15 -35.5t-14 -40.5
q-4 -8 -9.5 -16.5t-11.5 -14.5t-12 -11.5t-11.5 -9.5t-9.5 -6.5t-6.5 -4l-2.5 -1.5q6 -3 17 -7t42.5 -11t59.5 -7t61 13t55 40q19 25 19 56q0 44 -34 71zM429 623q0 -20 14.5 -34.5t35 -14.5t35 14.5t14.5 34.5v0q0 21 -14.5 35.5t-35 14.5t-35 -14.5t-14.5 -35.5v0z
M293 505q0 -21 14.5 -35.5t34.5 -14.5t34.5 14.5t14.5 35.5v0q0 20 -14.5 34.5t-34.5 14.5t-34.5 -14.5t-14.5 -34.5v0zM239 319q0 -21 14.5 -35.5t35 -14.5t35 14.5t14.5 35.5v0q0 20 -14.5 34.5t-35 14.5t-35 -14.5t-14.5 -34.5v0z" />
    <glyph glyph-name="wenjianjia-gengduocaozuo" unicode="&#xe643;" 
d="M0 841v0q0 23 16 39t39 16v0h914q23 0 39 -16t16 -39t-16 -39t-39 -16h-914v0q-23 0 -39 16t-16 39v0zM969 439h-914q-23 0 -39 -16t-16 -39t16 -39t39 -16h914q23 0 39 16t16 39t-16 39t-39 16zM969 -18h-914q-23 0 -39 -16t-16 -39t16 -39t39 -16h914q23 0 39 16t16 39
t-16 39t-39 16z" />
    <glyph glyph-name="tongzhi" unicode="&#xe658;" horiz-adv-x="1719" 
d="M1132 896h-838q-38 0 -65 -30t-27 -73v-689q0 -42 27 -72.5t65 -30.5h304l115 -129l116 129h303q38 0 65 30.5t27 72.5v689q0 43 -27 73t-65 30zM713 -27l-83 95h-319q-21 0 -35.5 16.5t-14.5 39.5v654q0 23 14.5 39.5t35.5 16.5h805q20 0 34.5 -16.5t14.5 -39.5v-654
q0 -23 -14.5 -39.5t-34.5 -16.5h-320zM1014 393h-575q-15 0 -26 -9.5t-11 -23t11 -23.5t26 -10h575q15 0 25.5 9.5t10.5 23.5t-10.5 23.5t-25.5 9.5zM1014 593h-575q-15 0 -26 -9.5t-11 -23t11 -23.5t26 -10h575q15 0 25.5 10t10.5 23.5t-10.5 23t-25.5 9.5z" />
    <glyph glyph-name="feihangfangshimoshi" unicode="&#xe6a1;" 
d="M988 604q-15 17 -43 30.5t-64 13.5v0q-47 -2 -89 -21l-1 -1q-100 -53 -192 -94q-44 5 -131 16l-239 30q-21 0 -48 -21l-1 -2q-8 -5 -23 -17q-8 -6 -13 -10q-18 -13 -16 -33q2 -21 23 -30l185 -93l-92 -44q-29 13 -92 33q-28 9 -39 13t-23 4q-30 0 -49 -21
q-13 -15 -16 -35q-3 -24 15 -39l116 -108q17 -16 45 -16q3 0 10 1h2q41 2 76 4q28 3 54 16q212 112 617 336l1 1q33 20 37 49q4 21 -10 38zM964 571q-2 -13 -21 -25q-399 -221 -616 -336q-20 -10 -41 -11q-34 -3 -74 -5h-2h-9q-15 0 -21 6l-117 108q-4 4 -4 10q2 9 7 16
q9 10 24 10q6 0 11 -2q12 -5 41 -14q63 -19 90 -32l1 -1q6 -2 11.5 -2t10.5 2l106 50l1 1q15 11 14 28q-1 15 -15 24l-195 98h-1q-2 1 -3 2l3 3v0q7 5 13 10q15 12 22 17l2 2q19 15 29 13h1q78 -9 232 -29q89 -11 133 -16l1 -1q7 0 14 3q84 37 195 96q35 16 74 17
q27 0 48.5 -9t32.5 -22q3 -5 2 -11zM790 307l16 -32h-225v-41h287l-52 97zM620 105l29 16l-13 32h232v41h-284z" />
    <glyph glyph-name="lianjie" unicode="&#xe606;" 
d="M213 370h2h-2zM928 366h-361q-7 0 -13.5 -6.5t-6.5 -14.5v-221q0 -9 6 -15t14 -6h361q8 0 14 6t6 15v221q0 9 -6 15t-14 6zM909 167q0 -11 -7 -18t-17 -7h-275q-10 0 -17 7t-7 18v135q0 11 7 18t17 7h273q10 0 17 -7t7 -18v-135h2zM664 81h167v-25h-167v25zM455 718h-359
q-9 0 -14.5 -6.5t-5.5 -14.5v-221q0 -9 5.5 -14.5t14.5 -5.5h361q9 0 14.5 5.5t5.5 14.5v221q-3 21 -22 21zM436 519q0 -11 -7 -17.5t-17 -6.5h-273q-10 0 -17 6.5t-7 17.5v135q0 11 7 18t17 7h273q10 0 17 -7t7 -18v-135zM193 433h167v-24h-167v24zM727 583h25v-224h-25
v224zM751.5 697q-27.5 0 -46.5 -19.5t-19 -45.5t20 -46t46 -20q27 0 46 19.5t19 46t-19 46t-46.5 19.5zM752 593q-16 0 -27.5 11t-11.5 28t11 28t28 11t28 -11t11 -28t-11 -28t-28 -11zM324 212h223v-25h-223v25zM475 642h223v-25h-223v25zM270 409h25v-170h-25v170z
M270.5 257q-27.5 0 -46.5 -19.5t-19 -46.5q0 -26 19.5 -45.5t45.5 -19.5t46 19.5t20 45.5q0 27 -19 46.5t-46.5 19.5zM270.5 153q-15.5 0 -27.5 11t-12 27q0 17 11 28t28 11t28 -11t11 -28q0 -16 -11.5 -27t-27 -11z" />
    <glyph glyph-name="jienengmoshi" unicode="&#xe60a;" horiz-adv-x="1433" 
d="M667.5 10q-101.5 0 -187 50.5t-135.5 136t-49.5 187t50.5 187t136 135.5t187 50t186.5 -50.5t135.5 -136t50 -187t-50.5 -187t-136 -135.5t-187 -50zM668.5 743q-97.5 0 -180.5 -48t-131.5 -131t-48.5 -180.5t48 -180.5t131 -131.5t180.5 -48.5t180.5 48t131.5 131
t48.5 180.5t-48 180.5t-131 131.5t-180.5 48.5zM636 278q-6 0 -11 17q-8 30 -16 38q-27 26 -27 63q0 36 26 61q25 26 60 26q36 0 61 -25t25 -61q0 -17 -7 -33q-10 -21 -19 -31q-7 -6 -15 -34q-4 -14 -6 -17.5t-7 -3.5h-64zM668 470q-30 0 -51 -22q-22 -21 -22 -52
q0 -32 23 -54q10 -11 19 -44v0q1 -1 1 -3q1 -2 1 -3l1 -2h57l1 3q1 2 2 6q1 2 1 3v0q9 31 17 40q9 8 17 27q6 14 6 28q0 30 -21.5 51.5t-51.5 21.5zM637 241q-7 0 -7 7t7 7h63q6 0 6 -7t-6 -7h-63zM668 539q-7 0 -7 7v42q0 6 7 6t7 -6v-42q0 -7 -7 -7zM580 492v0q-3 0 -5 2
l-29 29q-2 2 -2 5v0v0q0 2 2 4t4.5 2t4.5 -2l29 -29q2 -2 2 -5t-1.5 -4.5t-4.5 -1.5v0zM472 402q-6 0 -6 7.5t6 7.5h53q6 0 6 -7.5t-6 -7.5h-53zM756 492v0q-2 0 -4 1.5t-2 4.5v0q0 3 2 5l29 29q2 2 5 2v0q3 0 4.5 -2t1.5 -4v0v0q0 -3 -2 -5l-29 -29q-2 -2 -5 -2v0zM808 402
q-6 0 -6 7.5t6 7.5h52q7 0 7 -7.5t-7 -7.5h-52zM668 164q-13 0 -22 9t-9 22t9 22t22 9t22 -9t9 -22t-9 -22t-22 -9zM668 215q-8 0 -13.5 -6t-5.5 -14t5.5 -13.5t13.5 -5.5t14 5.5t6 13.5t-6 14t-14 6z" />
    <glyph glyph-name="zhong" unicode="&#xe60f;" 
d="M467 896v-199h-424v-518h85v69h339v-376h88v376h341v-69h85v518h-426v199h-88zM128 326v294h339v-295h-339v1zM555 326v294h341v-295h-341v1z" />
  </font>
</defs>
</svg>
